<?xml version="1.0" encoding="UTF-8" standalone="no"?>
<!DOCTYPE svg PUBLIC "-//W3C//DTD SVG 1.1//EN" "http://www.w3.org/Graphics/SVG/1.1/DTD/svg11.dtd">
<svg width="100%" height="100%" viewBox="0 0 911 909" version="1.1" xmlns="http://www.w3.org/2000/svg" xmlns:xlink="http://www.w3.org/1999/xlink" xml:space="preserve" xmlns:serif="http://www.serif.com/" style="fill-rule:evenodd;clip-rule:evenodd;stroke-linejoin:round;stroke-miterlimit:2;">
    <g transform="matrix(1,0,0,1,-337,-275.94)">
        <path d="M337,730C337.61,478 541.75,274.88 793.36,275.91C1045.18,276.91 1247.64,480.1 1247.13,731.29C1246.62,982.48 1042.43,1185.71 791.5,1184.85C539.59,1184 336.4,980.67 337,730ZM510,764.63L417.59,764.64C390.44,764.64 390.5,764.62 394.93,791.14C410.66,885.28 452.35,965.78 524.35,1028.87C629.92,1121.43 752.69,1152.04 888.92,1119.59C1055.28,1079.95 1174.3,937.49 1191.41,774.4C1192.29,765.99 1190.77,764.49 1182.77,764.49C1110.98,764.723 1039.2,764.723 967.42,764.49C960.19,764.46 957.42,766.36 955.42,773.8C935.877,847.616 868.469,899.348 792.11,899.13C715.11,898.95 647.93,847.44 629.11,773.74C627.31,766.46 624.42,764.38 617.11,764.46C581.41,764.84 545.7,764.63 510,764.63ZM793.12,848.53C858.11,848 911.3,794 910.46,729.47C909.64,664.53 856.02,611.85 791.17,612.26C725.38,612.69 673.57,666.42 674.12,733.69C674.64,796.65 728.99,849.1 793.12,848.53ZM1073.7,695.83C1108.27,695.837 1142.85,695.85 1177.44,695.87C1192.01,695.86 1192.13,695.82 1190.37,681.71C1179.82,597.69 1146.44,523.82 1089.37,461.39C975.54,336.87 802.17,294.72 645.44,358.26C500.01,417.17 416.59,527.57 393.79,683.26C392.06,695.06 396.29,695.98 405.9,695.98C470.53,695.68 535.15,695.83 599.78,695.83C625.18,695.83 625.18,695.83 633.18,672.45C633.9,670.33 634.69,668.21 635.56,666.14C664.66,597.28 729.46,557.74 806.24,562C874.39,565.77 935.18,616 954.97,685.38C957.23,693.29 960.54,696.13 968.88,696.02C1003.81,695.57 1038.76,695.83 1073.7,695.83Z" style="fill:rgb(1,1,1);"/>
    </g>
</svg>
